HIERARCHY
ROOT hip
{
  OFFSET 0 0 0
  CHANNELS 6 Xposition Yposition Zposition Zrotation Yrotation Xrotation
  JOINT abdomen
  {
    OFFSET 0 20.6881 -0.73152
    CHANNELS 3 Zrotation Xrotation Yrotation
    JOINT chest
    {
      OFFSET 0 11.7043 -0.48768
      CHANNELS 3 Zrotation Xrotation Yrotation
      JOINT neck
      {
        OFFSET 0 22.1894 -2.19456
        CHANNELS 3 Zrotation Xrotation Yrotation
        JOINT head
        {
          OFFSET -0.24384 7.07133 1.2192
          CHANNELS 3 Zrotation Xrotation Yrotation
          JOINT leftEye
          {
            OFFSET 4.14528 8.04674 8.04672
            CHANNELS 3 Zrotation Xrotation Yrotation
            End Site
            {
              OFFSET 1 0 0
            }
          }
          JOINT rightEye
          {
            OFFSET -3.6576 8.04674 8.04672
            CHANNELS 3 Zrotation Xrotation Yrotation
            End Site
            {
              OFFSET 1 0 0
            }
          }
        }
      }
      JOINT rCollar
      {
        OFFSET -2.68224 19.2634 -4.8768
        CHANNELS 3 Zrotation Xrotation Yrotation
        JOINT rShldr
        {
          OFFSET -8.77824 -1.95073 1.46304
          CHANNELS 3 Zrotation Xrotation Yrotation
          JOINT rForeArm
          {
            OFFSET -28.1742 -1.7115 0.48768
            CHANNELS 3 Zrotation Xrotation Yrotation
            JOINT rHand
            {
              OFFSET -22.5879 0.773209 7.07136
              CHANNELS 3 Zrotation Xrotation Yrotation
              JOINT rThumb1
              {
                OFFSET -1.2192 -0.487915 3.41376
                CHANNELS 3 Zrotation Xrotation Yrotation
                JOINT rThumb2
                {
                  OFFSET -3.37035 -0.52449 3.41376
                  CHANNELS 3 Zrotation Xrotation Yrotation
                  End Site
                  {
                    OFFSET -1.78271 -1.18214 1.43049
                  }
                }
              }
              JOINT rIndex1
              {
                OFFSET -7.75947 0.938293 5.60832
                CHANNELS 3 Zrotation Xrotation Yrotation
                JOINT rIndex2
                {
                  OFFSET -2.54057 -0.884171 1.56538
                  CHANNELS 3 Zrotation Xrotation Yrotation
                  End Site
                  {
                    OFFSET -1.62519 -0.234802 1.16502
                  }
                }
              }
              JOINT rMid1
              {
                OFFSET -8.24714 1.18213 3.41376
                CHANNELS 3 Zrotation Xrotation Yrotation
                JOINT rMid2
                {
                  OFFSET -3.10165 -0.590103 1.0647
                  CHANNELS 3 Zrotation Xrotation Yrotation
                  End Site
                  {
                    OFFSET -2.48547 -0.328903 0.83742
                  }
                }
              }
              JOINT rRing1
              {
                OFFSET -8.82822 0.546677 1.51678
                CHANNELS 3 Zrotation Xrotation Yrotation
                JOINT rRing2
                {
                  OFFSET -2.60934 -0.819778 -0.0198488
                  CHANNELS 3 Zrotation Xrotation Yrotation
                  End Site
                  {
                    OFFSET -2.33842 -0.294052 0.168128
                  }
                }
              }
              JOINT rPinky1
              {
                OFFSET -8.27202 -0.0477905 -0.4584
                CHANNELS 3 Zrotation Xrotation Yrotation
                JOINT rPinky2
                {
                  OFFSET -1.82734 -0.647385 -0.700984
                  CHANNELS 3 Zrotation Xrotation Yrotation
                  End Site
                  {
                    OFFSET -1.69225 -0.51767 -0.607171
                  }
                }
              }
            }
          }
        }
      }
      JOINT lCollar
      {
        OFFSET 2.68224 19.2634 -4.8768
        CHANNELS 3 Zrotation Xrotation Yrotation
        JOINT lShldr
        {
          OFFSET 8.77824 -1.95073 1.46304
          CHANNELS 3 Zrotation Xrotation Yrotation
          JOINT lForeArm
          {
            OFFSET 28.1742 -1.7115 0.48768
            CHANNELS 3 Zrotation Xrotation Yrotation
            JOINT lHand
            {
              OFFSET 22.5879 0.773209 7.07136
              CHANNELS 3 Zrotation Xrotation Yrotation
              JOINT lThumb1
              {
                OFFSET 1.2192 -0.487915 3.41376
                CHANNELS 3 Zrotation Xrotation Yrotation
                JOINT lThumb2
                {
                  OFFSET 3.37035 -0.52449 3.41376
                  CHANNELS 3 Zrotation Xrotation Yrotation
                  End Site
                  {
                    OFFSET 1.78271 -1.18214 1.43049
                  }
                }
              }
              JOINT lIndex1
              {
                OFFSET 7.75947 0.938293 5.60832
                CHANNELS 3 Zrotation Xrotation Yrotation
                JOINT lIndex2
                {
                  OFFSET 2.54057 -0.884171 1.56538
                  CHANNELS 3 Zrotation Xrotation Yrotation
                  End Site
                  {
                    OFFSET 1.62519 -0.234802 1.16502
                  }
                }
              }
              JOINT lMid1
              {
                OFFSET 8.24714 1.18213 3.41376
                CHANNELS 3 Zrotation Xrotation Yrotation
                JOINT lMid2
                {
                  OFFSET 3.10165 -0.590103 1.0647
                  CHANNELS 3 Zrotation Xrotation Yrotation
                  End Site
                  {
                    OFFSET 2.48547 -0.328903 0.83742
                  }
                }
              }
              JOINT lRing1
              {
                OFFSET 8.82822 0.546677 1.51678
                CHANNELS 3 Zrotation Xrotation Yrotation
                JOINT lRing2
                {
                  OFFSET 2.60934 -0.819778 -0.0198488
                  CHANNELS 3 Zrotation Xrotation Yrotation
                  End Site
                  {
                    OFFSET 2.33842 -0.294052 0.168128
                  }
                }
              }
              JOINT lPinky1
              {
                OFFSET 8.27202 -0.0477905 -0.4584
                CHANNELS 3 Zrotation Xrotation Yrotation
                JOINT lPinky2
                {
                  OFFSET 1.82734 -0.647385 -0.700984
                  CHANNELS 3 Zrotation Xrotation Yrotation
                  End Site
                  {
                    OFFSET 1.69225 -0.51767 -0.607171
                  }
                }
              }
            }
          }
        }
      }
    }
  }
  JOINT rButtock
  {
    OFFSET -8.77824 4.35084 1.2192
    CHANNELS 3 Zrotation Xrotation Yrotation
    JOINT rThigh
    {
      OFFSET 0 -1.70687 -2.19456
      CHANNELS 3 Zrotation Xrotation Yrotation
      JOINT rShin
      {
        OFFSET 0 -36.8199 0.73152
        CHANNELS 3 Zrotation Xrotation Yrotation
        JOINT rFoot
        {
          OFFSET 0.73152 -45.1104 -5.12064
          CHANNELS 3 Zrotation Xrotation Yrotation
          End Site
          {
            OFFSET -1.1221 -3.69964 12.103
          }
        }
      }
    }
  }
  JOINT lButtock
  {
    OFFSET 8.77824 4.35084 1.2192
    CHANNELS 3 Zrotation Xrotation Yrotation
    JOINT lThigh
    {
      OFFSET 0 -1.70687 -2.19456
      CHANNELS 3 Zrotation Xrotation Yrotation
      JOINT lShin
      {
        OFFSET 0 -36.8199 0.73152
        CHANNELS 3 Zrotation Xrotation Yrotation
        JOINT lFoot
        {
          OFFSET -0.73152 -45.1104 -5.12064
          CHANNELS 3 Zrotation Xrotation Yrotation
          End Site
          {
            OFFSET 1.1221 -3.69964 12.103
          }
        }
      }
    }
  }
}
MOTION
Frames:	4
Frame Time:	0.00833333
-79.9711 84.8839 -40.7732 0.0 0.0 0.0 -0.194078 -0.000752046 -0.00553945 -0.0535366 -0.00112971 -0.00927453 -4.96765e-15 0.0 6.21202e-17 -1.49182e-14 3.18055e-15 1.83255e-16 -0.0 0.0 0.0 -0.0 0.0 0.0 -2.4862e-15 2.13538e-18 1.49089e-16 -4.97392e-14 -3.72721e-17 1.39149e-15 -8.92444e-13 2.6995e-13 1.90833e-14 -1.02711e-11 -2.62893e-13 1.01778e-13 -2.42209e-11 1.7409e-14 2.8625e-13 -4.1835e-11 2.8625e-14 4.91396e-13 -2.42148e-11 1.86858e-14 2.73528e-13 7.73091 5.47488 0.417314 -2.42207e-11 1.71949e-14 2.8943e-13 2.90554 0.965183 0.102902 -2.42131e-11 1.75924e-14 2.83865e-13 10.2786 0.731801 0.0259123 -2.42261e-11 1.94809e-14 2.8943e-13 2.22167 -0.733487 -0.20892 -2.48358e-15 2.13538e-18 -4.96962e-17 -5.48543e-14 -1.2424e-16 -7.95139e-16 -9.01439e-13 -2.65576e-13 1.90833e-14 -1.02661e-11 2.77031e-13 1.17681e-13 -2.42234e-11 2.63813e-14 2.73528e-13 -4.18279e-11 4.77083e-14 4.88215e-13 -2.42279e-11 2.74323e-14 2.8625e-13 -7.73091 5.47488 -0.417314 -2.42231e-11 2.62396e-14 2.79889e-13 -2.90554 0.965183 -0.102902 -2.42344e-11 2.65378e-14 2.81479e-13 -10.2786 0.731801 -0.0259123 -2.42205e-11 2.82274e-14 2.76708e-13 -2.22167 -0.733487 0.20892 -2.03217e-16 0.0 -3.88251e-19 0.355871 -2.82713 -0.0340699 -0.00665519 -0.431856 -0.0584484 -0.502562 3.25829 0.123802 2.03217e-16 0.0 3.88251e-19 -0.651344 -3.58304 0.0525566 0.00445989 0.937459 0.0381193 0.504952 2.64491 -0.11159
-77.0932 83.7415 -41.7181 1.452 30.1377 -0.4464 -1.60098 2.64367 -1.10193 0.411198 -1.0424 -0.348643 -5.25139 4.65672 -4.36525 7.84128 -2.62561 -8.18922 -0.0 0.0 0.0 -0.0 0.0 0.0 1.39887e-14 -2.96433e-14 -2.64372e-14 22.6275 0.750585 -1.84835 -2.87513 -1.11937 4.67332 0.0251691 3.52041 0.491393 6.31754e-11 -2.38828e-10 -1.58632e-10 1.07192e-10 -4.12317e-10 -2.75972e-10 6.31812e-11 -2.38827e-10 -1.58645e-10 7.73091 5.47488 0.417314 6.31771e-11 -2.38831e-10 -1.58628e-10 2.90554 0.965183 0.102902 6.31834e-11 -2.38829e-10 -1.58635e-10 10.2786 0.731801 0.0259123 6.31713e-11 -2.38828e-10 -1.58631e-10 2.22167 -0.733487 -0.20892 1.39535e-14 -2.96414e-14 -2.66643e-14 -21.1397 3.86667 0.259175 3.82214 -1.66441 -6.046 -0.000928267 0.684573 -0.0961865 2.04466e-10 9.44563e-10 -5.94253e-10 3.52521e-10 1.63615e-09 -1.02946e-09 2.04462e-10 9.44562e-10 -5.94239e-10 -7.73091 5.47488 -0.417314 2.04466e-10 9.44562e-10 -5.94248e-10 -2.90554 0.965183 -0.102902 2.04456e-10 9.44562e-10 -5.94246e-10 -10.2786 0.731801 -0.0259123 2.0447e-10 9.44564e-10 -5.94251e-10 -2.22167 -0.733487 0.20892 -2.03217e-16 0.0 -3.88251e-19 0.37356 -5.1844 0.610143 0.00285359 8.60972 0.0812456 -0.467919 -2.07135 0.184046 2.03217e-16 0.0 3.88251e-19 -1.25762 -5.44751 0.346231 -0.000652901 7.83246 -0.0617291 0.414182 -1.25359 -0.978775
-77.1397 83.7653 -41.8216 1.3738 30.2266 -0.4064 -2.9893 5.43316 -2.2744 0.889163 -2.13941 -0.709736 -10.0305 9.5017 -9.07661 15.3389 -5.23112 -16.9047 -0.0 0.0 0.0 -0.0 0.0 0.0 3.08831e-14 -6.22209e-14 -4.15926e-14 46.6078 1.53208 -3.8229 -5.71603 -2.27749 9.61825 -0.0143504 7.23825 1.01667 1.20427e-10 -4.78176e-10 -3.02888e-10 2.04332e-10 -8.25814e-10 -5.26782e-10 1.20433e-10 -4.78175e-10 -3.02901e-10 7.73091 5.47488 0.417314 1.20431e-10 -4.78182e-10 -3.02883e-10 2.90554 0.965183 0.102902 1.20435e-10 -4.78179e-10 -3.02891e-10 10.2786 0.731801 0.0259123 1.20424e-10 -4.78179e-10 -3.0289e-10 2.22167 -0.733487 -0.20892 3.08074e-14 -6.2217e-14 -4.18504e-14 -43.5158 7.93054 0.544107 7.47733 -3.35829 -12.4448 0.000616289 1.42083 -0.199682 4.19505e-10 1.86911e-09 -1.21009e-09 7.23221e-10 3.23776e-09 -2.09626e-09 4.19502e-10 1.86911e-09 -1.21007e-09 -7.73091 5.47488 -0.417314 4.19505e-10 1.86911e-09 -1.21008e-09 -2.90554 0.965183 -0.102902 4.19497e-10 1.86911e-09 -1.21008e-09 -10.2786 0.731801 -0.0259123 4.1951e-10 1.86911e-09 -1.21009e-09 -2.22167 -0.733487 0.20892 -2.03217e-16 0.0 -3.88251e-19 0.446737 -7.66908 1.29387 -0.0370629 18.1772 0.239134 -0.420003 -7.70952 0.244813 2.03217e-16 0.0 3.88251e-19 -1.88086 -7.40328 0.671805 0.0208187 15.1154 -0.171919 0.188103 -5.37545 -1.91152
-77.2322 83.7849 -41.916 1.1506 30.2333 -0.3803 -4.10887 7.92081 -3.32292 1.30362 -3.12451 -1.02874 -13.594 13.6416 -13.4383 21.334 -7.2349 -24.7518 -0.0 0.0 0.0 -0.0 0.0 0.0 4.69384e-14 -8.89341e-14 -7.96098e-14 68.0277 2.24238 -5.54882 -8.08291 -3.26887 14.0406 -0.108282 10.5581 1.49674 2.37968e-10 -7.16518e-10 -4.76469e-10 4.05246e-10 -1.23701e-09 -8.289e-10 2.37973e-10 -7.16518e-10 -4.76482e-10 7.73091 5.47488 0.417314 2.37973e-10 -7.16527e-10 -4.76463e-10 2.90554 0.965183 0.102902 2.37976e-10 -7.16523e-10 -4.76472e-10 10.2786 0.731801 0.0259123 2.37966e-10 -7.16523e-10 -4.76472e-10 2.22167 -0.733487 -0.20892 4.68278e-14 -8.89285e-14 -7.98936e-14 -63.5259 11.5991 0.791927 10.4291 -4.77126 -18.1956 0.00411439 2.05369 -0.288724 6.61844e-10 2.83364e-09 -1.78331e-09 1.14122e-09 4.90836e-09 -3.08935e-09 6.61842e-10 2.83363e-09 -1.78329e-09 -7.73091 5.47488 -0.417314 6.61845e-10 2.83363e-09 -1.7833e-09 -2.90554 0.965183 -0.102902 6.61838e-10 2.83363e-09 -1.7833e-09 -10.2786 0.731801 -0.0259123 6.6185e-10 2.83364e-09 -1.78331e-09 -2.22167 -0.733487 0.20892 -2.03217e-16 0.0 -3.88251e-19 0.570133 -9.89437 1.91956 -0.122461 26.6923 0.400573 -0.363852 -12.7305 0.31225 2.03217e-16 0.0 3.88251e-19 -2.41212 -9.17554 0.941139 0.0655727 21.6223 -0.279345 -0.124771 -9.04091 -2.74683
